<?xml version="1.0" encoding="UTF-8"?>
<svg width="110px" height="110px" viewBox="0 0 110 110" version="1.1" xmlns="http://www.w3.org/2000/svg" xmlns:xlink="http://www.w3.org/1999/xlink">
    <!-- Generator: Sketch 50.2 (55047) - http://www.bohemiancoding.com/sketch -->
    <title>lower</title>
    <desc>Created with Sketch.</desc>
    <defs></defs>
    <g id="lower" stroke="none" stroke-width="1" fill="none" fill-rule="evenodd">
        <g id="lowercase" transform="translate(1.000000, 1.000000)" stroke="#FF0000">
            <path d="M53.9999999,108 C83.8233763,108 108,83.8233763 108,53.9999999 C108,24.1766234 83.8233763,0 53.9999999,0 C24.1766234,0 0,24.1766234 0,53.9999999 C0,83.8233763 24.1766234,108 53.9999999,108 Z" id="Shape" stroke-width="1.5"></path>
            <path d="M61.9589844,54.6132812 C61.0800737,55.1666694 60.1930383,55.6142561 59.2978516,55.9560547 C58.4026648,56.2978533 57.1738359,56.6152329 55.6113281,56.9082031 L52.4863281,57.4941406 C49.556626,58.0149766 47.4570376,58.6497358 46.1875,59.3984375 C44.0390518,60.6679751 42.9648438,62.6373564 42.9648438,65.3066406 C42.9648438,67.6829546 43.6240168,69.4000598 44.9423828,70.4580078 C46.2607488,71.5159558 47.8639229,72.0449219 49.7519531,72.0449219 C52.7467598,72.0449219 55.5055212,71.1660244 58.0283203,69.4082031 C60.5511194,67.6503818 61.8613276,64.4440337 61.9589844,59.7890625 L61.9589844,54.6132812 Z M53.5117188,48.1191406 C56.0833462,47.7936182 57.9225205,47.3867212 59.0292969,46.8984375 C61.0149839,46.0520791 62.0078125,44.7337329 62.0078125,42.9433594 C62.0078125,40.7623589 61.2509841,39.2568401 59.7373047,38.4267578 C58.2236252,37.5966755 56.0019678,37.1816406 53.0722656,37.1816406 C49.7844888,37.1816406 47.4570381,37.9954346 46.0898438,39.6230469 C45.1132764,40.82748 44.4622412,42.4550679 44.1367188,44.5058594 L30.7089844,44.5058594 C31.0019546,39.8508882 32.3040249,36.0260566 34.6152344,33.03125 C38.2936382,28.3437266 44.6086792,26 53.5605469,26 C59.3873989,26 64.5631284,27.1555874 69.0878906,29.4667969 C73.6126528,31.7780063 75.875,36.1399419 75.875,42.5527344 L75.875,66.9667969 C75.875,68.6595137 75.9075518,70.7102744 75.9726562,73.1191406 C76.070313,74.9420664 76.3470029,76.1790332 76.8027344,76.8300781 C77.2584658,77.481123 77.9420527,78.0182271 78.8535156,78.4414062 L78.8535156,80.4921875 L63.7167969,80.4921875 C63.2936177,79.4179634 63.0006519,78.4088589 62.8378906,77.4648438 C62.6751294,76.5208286 62.5449224,75.4466206 62.4472656,74.2421875 C60.5266831,76.3255312 58.3131636,78.0996021 55.8066406,79.5644531 C52.811834,81.2897222 49.4264512,82.1523438 45.6503906,82.1523438 C40.8326582,82.1523438 36.8532058,80.777032 33.7119141,78.0263672 C30.5706223,75.2757024 29,71.3776294 29,66.3320312 C29,59.7890298 31.5227612,55.052749 36.5683594,52.1230469 C39.3353003,50.5279868 43.40427,49.3886753 48.7753906,48.7050781 L53.5117188,48.1191406 Z" id="Shape" stroke-width="1.5" fill-rule="nonzero"></path>
            <path d="M3,3 L104.823376,104.823376" id="Line" stroke-width="2"></path>
        </g>
    </g>
</svg>