<?xml version="1.0" encoding="UTF-8"?>
<svg width="110px" height="110px" viewBox="0 0 110 110" version="1.1" xmlns="http://www.w3.org/2000/svg" xmlns:xlink="http://www.w3.org/1999/xlink">
    <!-- Generator: Sketch 50.2 (55047) - http://www.bohemiancoding.com/sketch -->
    <title>punctuation</title>
    <desc>Created with Sketch.</desc>
    <defs></defs>
    <g id="punctuation" stroke="none" stroke-width="1" fill="none" fill-rule="evenodd">
        <g id="Punctuation" transform="translate(1.000000, 1.000000)" stroke="#FF0000">
            <path d="M27,38.3139648 L36.6166992,38.3139648 L36.6166992,47.7719727 L27,47.7719727 L27,38.3139648 Z M27,62.0859375 L36.6166992,62.0859375 L36.6166992,71.5439453 L27,71.5439453 L27,62.0859375 Z M42.7739258,49.1367188 L60.9916992,49.1367188 L60.9916992,57.7060547 L42.7739258,57.7060547 L42.7739258,49.1367188 Z M77.9082031,36.5683594 C80.383801,42.2812786 81.621582,48.0364293 81.621582,53.8339844 C81.621582,60.2028313 80.151056,66.677376 77.2099609,73.2578125 C75.5595621,76.9394715 74.0044018,79.7112537 72.5444336,81.5732422 L70.2910156,84.651855 L63.5942383,84.651855 C66.387221,79.616023 68.3338161,75.4900877 69.434082,72.2739258 C71.3172295,66.8360731 72.2587891,60.8799152 72.2587891,54.4052734 C72.2587891,50.2581173 71.9202508,46.428403 71.2431641,42.9160156 C70.206375,37.5627988 68.3549938,32.4424073 65.6889648,27.5546875 L63.7529297,24 L70.5766602,24 C73.7928221,28.4856995 76.2366453,32.6751107 77.9082031,36.5683594 Z" id="Shape" stroke-width="1.5" fill-rule="nonzero"></path>
            <path d="M3,3 L104.823376,104.823376" id="Line" stroke-width="2"></path>
            <path d="M53.9999999,108 C83.8233764,108 108,83.8233764 108,53.9999999 C108,24.1766235 83.8233764,0 53.9999999,0 C24.1766235,0 0,24.1766235 0,53.9999999 C0,83.8233764 24.1766235,108 53.9999999,108 Z" id="Shape" stroke-width="1.5"></path>
        </g>
    </g>
</svg>